<svg id="svg-icon-arrow-right" data-name="SVG Icon Arrow Right" xmlns="http://www.w3.org/2000/svg" viewBox="0 0 14 14" aria-labeledby="meta-title meta-desc"><title id="meta-title">Arrow Pointing Right Icon</title><desc id="meta-desc">Arrow Pointing Right Icon</desc><style>svg { cursor: pointer; }</style><path d="M7,.05a7,7,0,1,0,7,7A6.95,6.95,0,0,0,7,.05Zm3.39,7.14-2,2a.33.33,0,0,1-.5,0,.37.37,0,0,1,0-.5L9.28,7.29H3.85a.36.36,0,0,1,0-.71H9.28L7.89,5.19a.37.37,0,0,1,0-.5.33.33,0,0,1,.5,0l2,2A.35.35,0,0,1,10.39,7.19Z"/></svg>