<svg id="svg-icon-search" data-name="SVG Icon Search" xmlns="http://www.w3.org/2000/svg" viewBox="0 0 14 14" aria-labeledby="meta-title meta-desc"><title id="meta-title">Search Icon</title><desc id="meta-desc">Search Icon</desc><style>svg { cursor: pointer; }</style><path d="M10.3,9H9.6l-.2-.2a5.26,5.26,0,0,0,1.2-4.4A5.53,5.53,0,0,0,6,0,5.39,5.39,0,0,0,0,4.7,5.65,5.65,0,0,0,0,6a5.4,5.4,0,0,0,4.4,4.6A5.26,5.26,0,0,0,8.8,9.4l.2.2v.7l3.5,3.5a.85.85,0,0,0,1.2-.07.84.84,0,0,0,0-1.13ZM5.4,9A3.76,3.76,0,0,1,1.7,5.3,3.76,3.76,0,0,1,5.4,1.6,3.7,3.7,0,0,1,9,5.4H9A3.52,3.52,0,0,1,5.56,9Z"/></svg>