<svg id="svg-logo_localsearch_negative" data-name="SVG Logo Localsearch Negative" xmlns="http://www.w3.org/2000/svg" xmlns:xlink="http://www.w3.org/1999/xlink" viewBox="0 0 840.4 197.4" aria-labeledby="meta-title meta-desc"><title id="meta-title">Logo localsearch.ch</title><desc id="meta-desc">Logo of localsearch.ch</desc><defs><filter id="f1" x="0" y="0"><feOffset result="offOut" in="SourceAlpha" dx="0" dy="0" /><feGaussianBlur result="blurOut" in="offOut" stdDeviation="2" /><feBlend in="SourceGraphic" in2="blurOut" mode="normal" /></filter><style>svg { cursor: pointer; } .cls-1{fill:none;}.cls-10,.cls-11,.cls-2,.cls-4,.cls-5,.cls-6,.cls-7,.cls-8{fill:#fff;}.cls-3{clip-path:url(#clip-path);}.cls-4{opacity:0.8;}.cls-10,.cls-11,.cls-4,.cls-5,.cls-6,.cls-7,.cls-8{isolation:isolate;}.cls-5{opacity:0.6;}.cls-6{opacity:0.24;}.cls-7{opacity:0.5;}.cls-8{opacity:0.4;}.cls-9{clip-path:url(#clip-path-2);}.cls-10{opacity:0.2;}.cls-11{opacity:0.3;}</style><clipPath id="clip-path"><path class="cls-1" d="M174,54.9,143.7,24.6s-42.5-42.9-85,0L28.8,54.9s-42.5,42.2,0,84.6l30.3,30.3s42.5,42.5,84.6,0L174,139.5C174,139.9,216.5,97.4,174,54.9Zm-27.3,71.6-13,13.4c-31.4,31.4-60.9,2.3-60.9,2.3L57.5,127.6c-31.4-31,.7-62,.4-62.4L69.8,53.3c31.4-31,62.8,0,62.8,0l11.9,11.9C175.9,97,146.7,126.5,146.7,126.5Z"/></clipPath><clipPath id="clip-path-2"><path class="cls-1" d="M101.2,120.7A25.6,25.6,0,1,0,75.5,95.1a25.59,25.59,0,0,0,25.7,25.6"/></clipPath></defs><a href= "https://www.localsearch.ch" target="_blank"><g filter="url(#f1)"><path class="cls-2" d="M242,130.9h-6.2c-2.9,0-3.7-.8-3.7-3.7V47.6c0-2.9.8-3.7,3.7-3.7H242c2.9,0,3.7.8,3.7,3.7v79.6C245.8,130.1,244.9,130.9,242,130.9Zm45-62.3c17.7,0,26.8,9.1,26.8,23.5v16.5c0,14.4-9.5,23.5-26.8,23.5s-26.8-9.1-26.8-23.5V92.1C260.2,77.7,269.7,68.6,287,68.6ZM287,81c-8.7,0-13.2,4.1-13.2,11.1v16.5c0,7,4.9,11.1,13.2,11.1,8.7,0,13.2-4.1,13.2-11.1V92.1C300.6,85.1,295.7,81,287,81Zm66.4-12.4c14,0,22.3,6.6,25.2,15.3.8,2.9,0,4.5-2.5,5.4l-4.9,1.6c-2.9,1.2-4.1.4-5.4-2.5-2.1-4.9-5.8-7.8-12.8-7.8-8.7,0-12.8,4.1-12.8,11.5v16.5c0,7.4,4.5,11.5,12.8,11.5,7,0,10.7-2.9,12.8-8.2,1.2-2.9,2.1-3.3,5.4-2.5l5.4,1.6c2.9,1.2,3.7,2.5,2.5,5.4-3.7,9.9-12,15.7-26,15.7-17.7,0-26-9.1-26-23.9V92.5C326.2,78.1,334.8,68.6,353.4,68.6Zm61,0c19.4,0,25.2,10.3,25.2,23.9v29.7c0,4.1-.8,5.4-4.1,6.6-4.5,2.1-11.5,3.3-21,3.3-20.6,0-26-7-26-19,0-13.6,7.8-18.1,26.4-18.1,4.5,0,9.1.4,11.1.4V91.7c0-7.4-2.9-11.5-11.5-11.5-5.8,0-9.9,2.1-12.4,5.8-1.6,2.5-2.5,2.9-4.9,1.6l-4.5-2.1c-2.9-1.2-3.3-2.5-2.1-5.4C394.2,73.6,402,68.6,414.4,68.6Zm-1.2,37.2c-9.1,0-11.1,2.9-11.1,7.8,0,4.5,2.1,7.8,11.1,7.8a49.78,49.78,0,0,0,11.5-1.2c1.2-.4,1.2-.4,1.2-1.6V106.2C423.5,106.2,417.7,105.8,413.2,105.8Zm51.5,25.1h-6.2c-2.9,0-3.7-.8-3.7-3.7V47.6c0-2.9.8-3.7,3.7-3.7h6.2c2.9,0,3.7.8,3.7,3.7v79.6C468.4,130.1,467.6,130.9,464.7,130.9Zm42.1-62.3c13.6,0,21.4,4.9,25.2,12.4,1.2,2.9.4,4.1-2.1,5.4l-5.4,2.1c-2.9,1.2-3.3.8-4.9-1.6-2.1-3.7-4.9-6.2-12.8-6.2s-11.1,2.1-11.1,6.6c0,5.4,4.5,6.2,13.6,7,14,1.2,23.9,4.5,23.9,18.1,0,11.5-8.7,19.8-25.6,19.8-13.6,0-22.3-4.9-26-14-1.2-2.5-.4-4.1,2.1-4.9l5.4-1.6c2.5-.8,3.7-.4,4.9,2.1,2.1,4.5,6.2,6.6,13.2,6.6,8.2,0,12.4-2.5,12.4-7,0-5.4-4.5-6.6-14-7.4-11.5-1.2-23.9-2.9-23.9-18.1C482.5,76.5,490.7,68.6,506.8,68.6Zm64.7,0c18.6,0,27.2,10.7,27.2,23.9v7c0,2.9-1.2,4.9-5.4,4.9H557.9v4.1c0,7.8,4.9,11.5,13.2,11.5,7,0,11.5-2.5,14-6.2,2.1-2.5,3.3-2.9,6.2-1.2l4.1,2.1c2.9,1.2,2.9,3.3,1.2,5.8-4.1,7-12,11.1-25.2,11.1-19.4,0-26.8-10.7-26.8-25.2V92.8C544.3,77.7,553.8,68.6,571.5,68.6Zm0,11.6c-8.7,0-13.6,4.5-13.6,11.5v2.9h27.2V92.1C585.1,84.7,580.2,80.2,571.5,80.2ZM635,68.6c19.4,0,25.2,10.3,25.2,23.9v29.7c0,4.1-.8,5.4-4.1,6.6-4.5,2.1-11.5,3.3-21,3.3-20.6,0-26-7-26-19,0-13.6,7.8-18.1,26.4-18.1,4.5,0,9.1.4,11.1.4V91.7c0-7.4-2.9-11.5-11.5-11.5-5.8,0-9.9,2.1-12.4,5.8-1.6,2.5-2.5,2.9-4.9,1.6l-4.5-2.1c-2.9-1.2-3.3-2.5-2.1-5.4C614.8,73.6,622.7,68.6,635,68.6Zm-1.2,37.2c-9.1,0-11.1,2.9-11.1,7.8,0,4.5,2.1,7.8,11.1,7.8a49.78,49.78,0,0,0,11.5-1.2c1.2-.4,1.2-.4,1.2-1.6V106.2C644.1,106.2,638.3,105.8,633.8,105.8Zm71.3-37.2c2.9,0,3.7.8,3.7,3.7v5.4c0,2.9-.8,3.7-3.7,3.7H701a42.7,42.7,0,0,0-11.1,1.2q-1.2.6-1.2,1.2v42.9c0,2.9-.8,3.7-3.7,3.7h-6.2c-2.9,0-3.7-.8-3.7-3.7V78.9c0-3.7.8-5.4,4.5-6.6,4.5-1.6,11.1-3.3,21.9-3.7Zm37.2,0c14,0,22.3,6.6,25.2,15.3.8,2.9,0,4.5-2.5,5.4l-4.9,1.6c-2.9,1.2-4.1.4-5.4-2.5-2.1-4.9-5.8-7.8-12.8-7.8-8.7,0-12.8,4.1-12.8,11.5v16.5c0,7.4,4.5,11.5,12.8,11.5,7,0,10.7-2.9,12.8-8.2,1.2-2.9,2.1-3.3,5.4-2.5l5.4,1.6c2.9,1.2,3.7,2.5,2.5,5.4-3.7,9.9-12,15.7-26,15.7-17.7,0-26-9.1-26-23.9V92.5C715.4,78.1,723.7,68.6,742.3,68.6Zm51.5-21V70.7a60.57,60.57,0,0,1,14-1.6c16.9,0,24.3,8.7,24.3,23.5v34.6c0,2.9-.8,3.7-3.7,3.7h-6.6c-2.9,0-3.7-.8-3.7-3.7V93c0-7.4-4.5-11.5-12.8-11.5a42.88,42.88,0,0,0-12,1.6v44.1c0,2.9-.8,3.7-3.7,3.7h-6.2c-2.9,0-3.7-.8-3.7-3.7V47.6c0-2.9.8-3.7,3.7-3.7h6.2C793,43.9,793.8,44.7,793.8,47.6Z"/><path class="cls-2" d="M101.6,120.7A25.6,25.6,0,1,0,76,95.1c-.5,14.1,11,25.6,25.6,25.6"/><path class="cls-2" d="M174,54.9,143.7,24.6s-42.5-42.5-84.6,0L29.2,54.9s-42.5,42.2,0,84.6l30.3,30.3s42.5,42.5,84.6,0l30.3-30.3C174,139.5,216.5,97.4,174,54.9Zm-29.1,73.6L133,140.3c-31.4,31.4-62.8,0-62.8,0L58.3,128.4c-31.4-31.4,0-62.8,0-62.8L70.2,53.7c31.4-31.4,62.8,0,62.8,0l11.9,11.9C176.3,97,144.9,128.5,144.9,128.5Z"/><path id="SVGID" class="cls-2" d="M174,54.9,143.7,24.6s-42.5-42.9-85,0L28.8,54.9s-42.5,42.2,0,84.6l30.3,30.3s42.5,42.5,84.6,0L174,139.5C174,139.9,216.5,97.4,174,54.9Zm-27.3,71.6-13,13.4c-31.4,31.4-60.9,2.3-60.9,2.3L57.5,127.6c-31.4-31,.7-62,.4-62.4L69.8,53.3c31.4-31,62.8,0,62.8,0l11.9,11.9C175.9,97,146.7,126.5,146.7,126.5Z"/><path id="SVGID-2" data-name="SVGID" class="cls-2" d="M174,54.9,143.7,24.6s-42.5-42.9-85,0L28.8,54.9s-42.5,42.2,0,84.6l30.3,30.3s42.5,42.5,84.6,0L174,139.5C174,139.9,216.5,97.4,174,54.9Zm-27.3,71.6-13,13.4c-31.4,31.4-60.9,2.3-60.9,2.3L57.5,127.6c-31.4-31,.7-62,.4-62.4L69.8,53.3c31.4-31,62.8,0,62.8,0l11.9,11.9C175.9,97,146.7,126.5,146.7,126.5Z"/><g class="cls-3"><path class="cls-2" d="M144.4,145.6c-41.3,40.6-82.7-.7-82.7-.7h0a47.07,47.07,0,0,1-25.3,1.5l23.8,23.4s42.2,41.7,83.9,0L174,139.9s11.9-11.9,16.4-29.1l-17.6,17.6C162.8,138.4,153.6,143.3,144.4,145.6Z"/><path class="cls-4" d="M131.4,80.2c-.7,24.5-18.8,42.5-18.8,42.5l-7.6,7.6c6.9,4.2,17.6,8.5,29.5,6.5l9.2-9.2a63.05,63.05,0,0,0,10.7-16.8c-2-6.5-5.8-13.4-12.6-20.3Z"/><path class="cls-4" d="M84.7,7.8c.4-.4.7-.4.7-.7a8.7,8.7,0,0,1-3.1.7l1.1,1.1Z"/><path class="cls-5" d="M84,153.7l-1.1,1.1c-10.7,11.5-13.7,13-13.7,13,5.4,4.6,28.3,23.8,54,5.4-21.8-2.7-37.9-18.4-37.9-18.4Z"/><path class="cls-6" d="M10.8,107.7A69,69,0,0,1,27.6,80.9L39.9,68.6A75.56,75.56,0,0,1,56.7,39.1L64.8,31a78.75,78.75,0,0,0-7.2-3.8l-28,28C29.2,55.3,5.5,78.2,10.8,107.7Z"/><path class="cls-7" d="M104.2,29.6l2.3,2.3c19.9,3.8,34.1,18,34.1,18l30.3,30.3A68.84,68.84,0,0,1,182,94.4a37.73,37.73,0,0,0,.4-27.6,74.28,74.28,0,0,0-9.9-11.9L146.8,28C136.4,22.3,120.4,18.9,104.2,29.6Z"/><path class="cls-4" d="M57.9,128.5c-5.8-5.8-10.3-15-12.6-20.3l-.4,1.1a38.11,38.11,0,0,0,.4,29.1c5.4-.4,10.3-2.7,16.1-6.1Z"/><path class="cls-4" d="M131.4,80.2l10.3,10.3c6.9,6.9,10.7,13.7,12.6,20.3,5-11.9,6.1-29.1-10.7-46L131.8,53a53.2,53.2,0,0,0-13.4-9.2C128,56.4,131.4,69,131.4,80.2Z"/><path class="cls-4" d="M94.3,64.5A55.61,55.61,0,0,0,83.2,48.8c-.8.7-11.2,11.5-13.4,26.4C78.6,67.9,86.7,65.2,94.3,64.5Z"/><path class="cls-2" d="M124.6,172.1C95.5,193.2,68.7,166,68.7,166l-.4-.4c-3.1,1.5-6.1,3.1-9.2,3.8h0s41.7,41.7,83.9.7A38.24,38.24,0,0,1,124.6,172.1Z"/><path class="cls-8" d="M44.9,138a38.57,38.57,0,0,1-.4-29.1c-7.6-7.6-12.6-19.9-9.6-36,0,0-20.3,16.8-24.5,34.8,1.5,8.1,5.4,16.8,12.3,25.6C29.2,136.4,36.5,138.8,44.9,138Z"/><path class="cls-4" d="M120,45a53.43,53.43,0,0,1,13.4,9.2L145.3,66C162.1,82.8,161,99.7,156,112a38.61,38.61,0,0,1,.7,16.1c1.1-1.1,2.3-2,3.4-3.1L172,113.1a55.5,55.5,0,0,0,11.1-18A86.49,86.49,0,0,0,172,80.9L141.7,50.6s-16.4-15.3-36.4-19.1v.4l1.1.4.7.4C112.7,36.5,118.4,43,120,45Z"/><path class="cls-4" d="M54.4,122.7l8.1,8.1a51.56,51.56,0,0,0,8.8-7.2l11.9-11.9h0C70.6,98.6,67.9,86,69.9,75.2"/><path class="cls-4" d="M104.7,130.7l-20,20c11.9,5,29.1,6.9,46.3-10.7l2.7-2.7C122.2,139.1,111.6,135,104.7,130.7Z"/><path class="cls-2" d="M83.6,8.9l20.7,20.7c16.1-10.7,32.6-7.2,42.5-2l-4.2-4.2S117-1.5,85.6,7c-.4.4-.7.4-.7.7Z"/><path class="cls-2" d="M31.9,72.9,55.7,49.5a61.34,61.34,0,0,1,16-12.2l-.4-.4S64.1,30,56.7,27.3L41.4,43.8C41.4,43.4,29.6,55.6,31.9,72.9Z"/><path class="cls-2" d="M133.4,140.7C116.1,158,98.9,156.4,87,151.4l-1.5-.4,1.5,3.1s15.7,15.7,37.9,18.4a31.49,31.49,0,0,0,6.9-6.1l11.9-11.9s11.1-11.1,13.4-26.5c-7.2,6.1-14.2,9.2-20.7,10.3Z"/><path class="cls-2" d="M182.8,95.5c3.8,6.1,6.9,11.5,8.1,17.3,4.2-12.6,4.6-28.7-6.5-45.2C187.7,77.5,185.5,87.8,182.8,95.5Z"/><path class="cls-4" d="M66.3,78.2a31.84,31.84,0,0,1,3.4-3.1c2.3-15,12.6-25.6,13.4-26.5h0L79,44.5A56,56,0,0,0,68.3,53L56.4,64.8s-18,20.7-11.5,44A133.24,133.24,0,0,1,54.5,90Z"/><path class="cls-2" d="M66.3,78.2a31.84,31.84,0,0,1,3.4-3.1c2.3-15,12.6-25.6,13.4-26.5h0L79,44.5A56,56,0,0,0,68.3,53L56.4,64.8s-18,20.7-11.5,44A133.24,133.24,0,0,1,54.5,90Z"/><path class="cls-8" d="M56.4,65.2,68.3,53.3A53.85,53.85,0,0,1,79,44.8l-7.2-7.2A75,75,0,0,0,55.7,49.9l-18,18c-3.4,11.9,3.4,31.8,7.2,40.2C38.4,88.2,56.4,65.2,56.4,65.2Z"/><path class="cls-8" d="M56,65.2,70.6,50.6c2.3-2.7,8.5-6.1,8.5-6.1l-7.2-7.2c-5.4,3.1-11.9,7.2-17.3,13l-18,18c-7.6,26.5,8.1,41,8.5,41C38.4,85.9,56,65.2,56,65.2Z"/><path class="cls-8" d="M57.1,65.2,69.4,53c3.4-3.4,6.1-6.5,9.9-8.5l-7.2-7.2c-5.4,3.1-9.6,6.9-15.3,12.3l-18,18c-4.6,25.3,6.1,39.8,6.1,39.8C38.4,84.3,57.1,65.2,57.1,65.2Z"/><path class="cls-4" d="M83.6,111.6h0l12.3,12.3a52.49,52.49,0,0,0,9.2,6.9l7.6-7.6s18-18,18.8-42.5l-2-2S114.2,63.4,94.7,65C105.1,89.4,84.3,110.8,83.6,111.6Z"/><path class="cls-2" d="M106.2,31.5l-2-2a10.31,10.31,0,0,0-2,1.5C103.5,31.1,104.7,31.5,106.2,31.5Z"/><path class="cls-2" d="M84.7,150.6l-4.6-2.7c-7.2-3.8-9.9-7.2-9.9-7.2l-8.8-8.8c-5.8,3.4-10.7,5.8-16.1,6.1,2.3,5,7.2,11.9,12.3,17.3L68.7,166c5-3.4,8.5-7.6,13.7-13Z"/><path class="cls-2" d="M55.3,26.2A37.72,37.72,0,0,1,62.5,30L83.6,8.9,82.5,7.8c-8.1,2.7-16.4,7.6-24.9,16.1Z"/><path class="cls-2" d="M95.5,36.9l-2.7,2.7c9.6-1.5,21.1,1.5,25.6,4.2-1.5-2-3.8-3.8-5.8-5.8l-6.5-6.5c-1.1-.4-2.7-.4-3.8-.7A76.36,76.36,0,0,0,95.5,36.9Z"/><path class="cls-5" d="M92,40.7c6.9-2.3,17.6-.4,22.9,1.5,2,.7,4.2,1.5,4.6,2a75.51,75.51,0,0,0-11.1-11.5,15,15,0,0,0-5.8-1.5C98.1,33.8,92,40.7,92,40.7Z"/><path class="cls-4" d="M55.6,153.3c-5.4-5.4-8.5-9.9-10.3-15.3a42.88,42.88,0,0,1-21.8-5,39.28,39.28,0,0,0,5,5.8l31,31a89.39,89.39,0,0,0,9.2-3.8Z"/><path class="cls-4" d="M57.1,154.8c-5.4-5.4-9.9-11.5-11.9-16.8a47.52,47.52,0,0,1-21.8-4.6,39.28,39.28,0,0,0,5,5.8l31,31a89.39,89.39,0,0,0,9.2-3.8Z"/><path class="cls-5" d="M71.7,37.3A50.22,50.22,0,0,1,102,31.2c.7-.4,1.1-1.1,2-1.5L83.2,8.9,62.1,30a37.19,37.19,0,0,1,8.8,6.9Z"/><path class="cls-5" d="M71.7,37.3A50.22,50.22,0,0,1,102,31.2c.7-.4,1.1-1.1,2-1.5L78.2-22.1,55.3,26.2C61,29.6,71,36.9,71,36.9Z"/><path class="cls-4" d="M83.6,48.8h0l9.2-9.2a39.53,39.53,0,0,0-13.4,5Z"/><path class="cls-2" d="M92.8,39.6l2.7-2.7a48.45,48.45,0,0,1,6.5-5.8c-9.2-1.1-19.5.4-30.3,6.1l7.2,7.2C84,41.9,88.1,40.3,92.8,39.6Z"/><path class="cls-2" d="M92,40.7l4.2-4.2a47.76,47.76,0,0,1,6.5-5.4c-8.8-1.1-20.3.7-30.3,6.1l8.1,8.5C84.3,43,87.8,41.9,92,40.7Z"/><path class="cls-4" d="M62.5,105.8,54,96.6c-26.5-28.7,0-57,0-57L64,28.4c14.6-15.7,29.1-14.2,39.1-9.6l2-2a56.32,56.32,0,0,1,21.1-15h0s-35.7-38.6-70.9,0L30,29.5s-35.7,38.6,0,77l25.3,27.6S67.2,146.7,84,150.2l-5.4-5.8C66,131.1,62.1,117.7,62.5,105.8Z"/></g><path id="SVGID-3" data-name="SVGID" class="cls-2" d="M101.2,120.7A25.6,25.6,0,1,0,75.5,95.1a25.59,25.59,0,0,0,25.7,25.6"/><path id="SVGID-4" data-name="SVGID" class="cls-2" d="M101.2,120.7A25.6,25.6,0,1,0,75.5,95.1a25.59,25.59,0,0,0,25.7,25.6"/><g class="cls-9"><path class="cls-10" d="M108.5,89.4A55.61,55.61,0,0,0,97.4,73.7c-.7.7-11.1,11.5-13.4,26.5C92.8,92.8,100.8,89.7,108.5,89.4Z"/><path class="cls-4" d="M76.7,155.6a51.56,51.56,0,0,0,8.8-7.2l11.9-11.9h0c-12.6-13-15.3-25.6-13.4-36.4-1.1,1.1-2.3,2-3.4,3.1l-12,11.9a63.05,63.05,0,0,0-10.7,16.8c.4,1.1.7,2.7,1.1,3.8a95.86,95.86,0,0,0,9.6,11.5Z"/><path class="cls-4" d="M57.9,132.3c0,.4-.4.7-.4,1.1.4.7,1.1,2,1.5,2.7C58.7,135,58.3,133.4,57.9,132.3Z"/><path class="cls-4" d="M57.9,132.3c0,.4-.4.7-.4,1.1.4.7,1.1,2,1.5,2.7C58.7,135,58.3,133.4,57.9,132.3Z"/><path class="cls-10" d="M80.5,103.1a31.84,31.84,0,0,1,3.4-3.1c2.3-15,12.6-25.6,13.4-26.5h0l-4.2-4.2c-3.4,2-8.1,3.4-11.5,7.2L70.5,90s-19.1,19.1-12.6,42.5a55.68,55.68,0,0,1,10.7-16.8Z"/><path class="cls-11" d="M80.5,103.1a31.84,31.84,0,0,1,3.4-3.1c2.3-15,12.6-25.6,13.4-26.5h0l-4.2-4.2c-3.4,2-7.2,3.4-10.7,7.2L70.6,90S51.5,109.1,58,132.5a55.68,55.68,0,0,1,10.7-16.8Z"/><path class="cls-2" d="M97.7,136.4h0L110,148.7a52.49,52.49,0,0,0,9.2,6.9l7.6-7.6s18-18,18.8-42.5l-2-2s-15.3-15.3-34.8-13.7C119.2,114.2,98.6,135.7,97.7,136.4Z"/><path class="cls-8" d="M97.7,73.7a53.64,53.64,0,0,1,11.1,15.7c19.9-1.1,34.8,13.7,34.8,13.7l2,2c.4-11.1-3.1-23.8-13.7-36.4A39.89,39.89,0,0,0,107,64.5l-9.3,9.2Z"/><path class="cls-8" d="M97.7,73.7h0l9.2-9.2a39.53,39.53,0,0,0-13.4,5Z"/><path class="cls-5" d="M97.7,73.7h0l9.2-9.2a39.53,39.53,0,0,0-13.4,5Z"/></g></g></a></svg>