<svg id="svg-logo_pttarchiv_negative" data-name="SVG Logo PTT-Archiv Negative" xmlns="http://www.w3.org/2000/svg" viewBox="0 0 138.1 53.7" aria-labeledby="meta-title meta-desc"><title id="meta-title">Logo PTT-Archiv</title><desc id="meta-desc">Logo of PTT-Archiv Switzerland</desc><defs><filter id="f1" x="0" y="0"><feOffset result="offOut" in="SourceAlpha" dx="0" dy="0" /><feGaussianBlur result="blurOut" in="offOut" stdDeviation="2" /><feBlend in="SourceGraphic" in2="blurOut" mode="normal" /></filter><style>svg { cursor: pointer; } .cls-1{isolation:isolate;}.cls-2{fill:#fff;}</style></defs><a href= "https://www.mfk.ch/forschen/ptt-archiv" target="_blank"><g filter="url(#f1)"><g class="cls-1"><path class="cls-2" d="M9.6,6c0,2.2-1.5,3.6-3.9,3.6H3.3v5.1H1.4V2.4H5.6C8.1,2.4,9.6,3.8,9.6,6Zm-2,0c0-1.4-.9-1.9-2.2-1.9H3.3V7.8H5.4C6.7,7.8,7.6,7.4,7.6,6Z"/><path class="cls-2" d="M19,4.1H15.5V14.6H13.6V4.1H10.1V2.4H19Z"/><path class="cls-2" d="M28.8,4.1H25.3V14.6H23.4V4.1H19.9V2.4h8.9Z"/><path class="cls-2" d="M33.2,10H28.9V8.3h4.3Z"/><path class="cls-2" d="M40.9,11.6H36.5l-.9,3H33.5L37.7,2.4h2l4.2,12.2H41.8Zm-.5-1.7L38.7,4.5,37,9.9Z"/><path class="cls-2" d="M50.7,5.6v2a3.08,3.08,0,0,0-1-.1c-1.7,0-2.5.8-2.5,3v4.2H45.4v-9h1.8V7.6h0a2.57,2.57,0,0,1,2.7-2.1A1.18,1.18,0,0,1,50.7,5.6Z"/><path class="cls-2" d="M59.7,8.9H57.8a1.89,1.89,0,0,0-2-1.8c-1.4,0-2.5.8-2.5,3s1.1,3,2.5,3a1.79,1.79,0,0,0,2-1.8h1.9a3.67,3.67,0,0,1-4,3.5c-2.6,0-4.4-1.8-4.4-4.7s1.9-4.7,4.4-4.7A3.72,3.72,0,0,1,59.7,8.9Z"/><path class="cls-2" d="M69.6,9.1v5.6H67.8V9.4c0-1.5-.7-2.3-2.1-2.3s-2.2,1-2.2,2.9v4.6H61.7V2.4h1.8V7.2h0a2.88,2.88,0,0,1,2.9-1.8C68.4,5.4,69.6,6.7,69.6,9.1Z"/><path class="cls-2" d="M71.5,3.3a1.2,1.2,0,0,1,2.4,0,1.2,1.2,0,0,1-2.4,0Zm.3,2.4h1.8v8.9H71.8Z"/><path class="cls-2" d="M84.2,5.7l-3.7,8.9H78.7L75,5.7h2.1l2.5,6.6,2.5-6.6Z"/></g><g class="cls-1"><path class="cls-2" d="M7.6,28.6H3.1l-.9,3H.2L4.4,19.4h2l4.2,12.2H8.5ZM7,26.9,5.3,21.5,3.6,26.9Z"/><path class="cls-2" d="M17.3,22.6v2a3.08,3.08,0,0,0-1-.1c-1.7,0-2.5.8-2.5,3v4.2H12V22.8h1.8v1.9h0a2.57,2.57,0,0,1,2.7-2.1C16.7,22.4,17,22.5,17.3,22.6Z"/><path class="cls-2" d="M26.3,25.9H24.4a1.89,1.89,0,0,0-2-1.8c-1.4,0-2.5.8-2.5,3s1.1,3,2.5,3a1.79,1.79,0,0,0,2-1.8h1.9a3.67,3.67,0,0,1-4,3.5c-2.6,0-4.4-1.8-4.4-4.7s1.9-4.7,4.4-4.7C24.6,22.4,26.2,23.7,26.3,25.9Z"/><path class="cls-2" d="M36.2,26.1v5.6H34.4V26.5c0-1.5-.7-2.3-2.1-2.3s-2.2,1-2.2,2.9v4.6H28.3V19.4h1.8v4.8h0A3.06,3.06,0,0,1,33,22.4C35.1,22.4,36.2,23.7,36.2,26.1Z"/><path class="cls-2" d="M38.1,20.3a1.2,1.2,0,1,1,1.2,1.2A1.16,1.16,0,0,1,38.1,20.3Zm.3,2.4h1.8v8.9H38.4Z"/><path class="cls-2" d="M50.9,22.7l-3.7,8.9H45.4l-3.7-8.9h2.1l2.5,6.6,2.5-6.6Z"/><path class="cls-2" d="M59.8,27.7H53.2c.2,1.7,1,2.5,2.5,2.5a2,2,0,0,0,2.1-1.5h1.9a3.6,3.6,0,0,1-3.9,3.2c-2.7,0-4.3-1.8-4.3-4.7s1.8-4.8,4.4-4.8c2.3,0,4.1,1.3,4.1,4.8v.5Zm-1.9-1.5a1.94,1.94,0,0,0-2.1-2.1,2.27,2.27,0,0,0-2.5,2.1Z"/><path class="cls-2" d="M68.4,25.5H66.5c-.1-1.1-.6-1.4-1.9-1.4-1.1,0-1.7.3-1.7.9s.7,1,2.1,1.3c2.2.5,3.3,1.1,3.3,2.8s-1.3,2.8-3.6,2.8c-2.5,0-4-1.2-4-3.3h1.9c0,1.1.7,1.7,2.2,1.7,1.1,0,1.7-.4,1.7-1.1s-.6-1-2-1.3c-2-.4-3.5-1-3.5-2.9,0-1.7,1.3-2.6,3.5-2.6C67,22.4,68.4,23.5,68.4,25.5Z"/><path class="cls-2" d="M84.1,19.4V31.6H82.3V30.1h0a3.42,3.42,0,0,1-3.2,1.8c-2.4,0-4.1-1.9-4.1-4.7s1.7-4.7,4.1-4.7a3.66,3.66,0,0,1,3.2,1.8h0V19.4Zm-1.8,7.8a2.76,2.76,0,0,0-2.9-3c-1.6,0-2.4,1.2-2.4,3s.9,3,2.4,3A2.81,2.81,0,0,0,82.3,27.2Z"/><path class="cls-2" d="M94.5,27.7H87.9c.2,1.7,1,2.5,2.5,2.5a2,2,0,0,0,2.1-1.5h1.9a3.6,3.6,0,0,1-3.9,3.2c-2.7,0-4.3-1.8-4.3-4.7s1.8-4.8,4.4-4.8c2.3,0,4.1,1.3,4.1,4.8v.5Zm-1.9-1.5a1.94,1.94,0,0,0-2.1-2.1A2.27,2.27,0,0,0,88,26.2Z"/><path class="cls-2" d="M103.2,25.5h-1.9c-.1-1.1-.6-1.4-1.9-1.4-1.1,0-1.7.3-1.7.9s.7,1,2.1,1.3c2.2.5,3.3,1.1,3.3,2.8s-1.3,2.8-3.6,2.8c-2.5,0-4-1.2-4-3.3h1.9c0,1.1.7,1.7,2.2,1.7,1.1,0,1.7-.4,1.7-1.1s-.6-1-2-1.3c-2-.4-3.5-1-3.5-2.9,0-1.7,1.3-2.6,3.5-2.6C101.8,22.4,103.1,23.5,103.2,25.5Z"/><path class="cls-2" d="M118.6,23c0,2.2-1.5,3.6-3.9,3.6h-2.3v5.1h-1.9V19.4h4.2C117.2,19.4,118.6,20.8,118.6,23Zm-2,0c0-1.4-.9-1.9-2.2-1.9h-2.1v3.7h2.1C115.8,24.8,116.6,24.4,116.6,23Z"/><path class="cls-2" d="M128.1,21.1h-3.5V31.6h-1.9V21.1h-3.5V19.4h8.9Z"/><path class="cls-2" d="M137.8,21.1h-3.5V31.6h-1.9V21.1H129V19.4h8.9v1.7Z"/></g><g class="cls-1"><path class="cls-2" d="M5.2,46.9a1.84,1.84,0,0,1-1.9,1.9,1.9,1.9,0,1,1,0-3.8A1.9,1.9,0,0,1,5.2,46.9Z"/><path class="cls-2" d="M11.8,46.9a1.84,1.84,0,0,1-1.9,1.9,1.9,1.9,0,1,1,0-3.8A1.9,1.9,0,0,1,11.8,46.9Z"/><path class="cls-2" d="M18.4,46.9A1.9,1.9,0,1,1,16.5,45,1.84,1.84,0,0,1,18.4,46.9Z"/></g></g></a></svg>