<svg id="SVG logo_hasler" data-name="SVG Logo Hasler" xmlns="http://www.w3.org/2000/svg" viewBox="0 0 237 63"><style>svg { cursor: pointer; }</style><path d="M208.7,20.7a8.28,8.28,0,0,0-8.3,8.3V55.2h10V31.8a2.43,2.43,0,0,1,2.4-2.4H229V20.7Zm-26.6,8.2a1.89,1.89,0,0,1,2,2V32a1.89,1.89,0,0,1-2,2H166.2V31a1.89,1.89,0,0,1,2-2h13.9Zm-25.9,18a8.34,8.34,0,0,0,8.3,8.3h28.2V46.8H168.6a2.43,2.43,0,0,1-2.4-2.4V41.8h19.7a8.28,8.28,0,0,0,8.3-8.3V29a8.34,8.34,0,0,0-8.3-8.3H164.5a8.28,8.28,0,0,0-8.3,8.3Zm-16.3,8.3h9.9V9h-10ZM108.4,33.9a1.89,1.89,0,0,1-2-2v-.7a1.89,1.89,0,0,1,2-2h22.9V20.8H104.8a8.34,8.34,0,0,0-8.3,8.3v4.7a8.37,8.37,0,0,0,8.3,8.4h16.8a1.94,1.94,0,0,1,2,2V45a1.89,1.89,0,0,1-2,2H97.1v8.4h28a8.41,8.41,0,0,0,8.3-8.3V42.3a8.41,8.41,0,0,0-8.3-8.3H108.4Zm-43.6,13a2,2,0,0,1-2.1-2.1V44a2.05,2.05,0,0,1,2.1-2.1H80.1v5ZM81.9,20.7h-27v8.4H78a2.16,2.16,0,0,1,2.2,2.2v2.6h-19a8.34,8.34,0,0,0-8.3,8.3v4.7a8.34,8.34,0,0,0,8.3,8.3H90.3V28.9A8.41,8.41,0,0,0,81.9,20.7Zm-43.5,0H19V9H9V55.2H19V29.4H34.4a2.43,2.43,0,0,1,2.4,2.4V55.2h10V28.9A8.55,8.55,0,0,0,38.4,20.7Z"/></svg>