<svg id="svg-logo_unibern_negative" data-name="SVG Logo UniBern Negative" xmlns="http://www.w3.org/2000/svg" viewBox="0 0 200 149" aria-labeledby="meta-title meta-desc"><title id="meta-title">Logo UniBe</title><desc id="meta-desc">Logo of University of Bern</desc><defs><filter id="f1" x="0" y="0"><feOffset result="offOut" in="SourceAlpha" dx="0" dy="0" /><feGaussianBlur result="blurOut" in="offOut" stdDeviation="2" /><feBlend in="SourceGraphic" in2="blurOut" mode="normal" /></filter><style>svg { cursor: pointer; } .cls-1,.cls-2{fill:#fff;}.cls-2{stroke:#fff;stroke-width:1.8px;}</style></defs><a href= "https://www.dh.unibe.ch" target="_blank"><g filter="url(#f1)"><g id="g2462"><g id="g8"><path id="path10" class="cls-1" d="M32.36,56.8c-3.8,4.7-8.2,8.4-14.3,8.4-4.1,0-7.8-1.4-7.8-6.3a45.47,45.47,0,0,1,1.1-6.8l4.5-20.6H9l.6-2.2h8c2.7,0,5.3-.3,8-.3l-5.3,22.6A51.11,51.11,0,0,0,19,58.8c0,2.3,2,2.8,3.8,2.8,1.5,0,3.3-1.1,4.5-1.9,3.9-2.5,5.8-7.3,6.8-11.7l4.4-18.7h9.1l-5.8,25.6a24.35,24.35,0,0,0-.9,5.2,1.7,1.7,0,0,0,1.7,1.4c3.1,0,7-7.2,8.1-9.8l1.9,1.1c-2.3,5.8-7.1,12.4-13.8,12.4-5.1,0-6.5-3.3-6.4-8.4"/></g><g id="g12"><path id="path14" class="cls-1" d="M55.42,27.53l3.1-23h2.9l-1.3,8.9.1.1a4.47,4.47,0,0,1,3.7-1.7c3.1,0,5.3,2.8,5.3,6.8s-2.2,9.1-9.8,9.1C57.92,27.73,56.32,27.63,55.42,27.53Zm4.4-11.3-1.3,9.2h1.6c3.9,0,6.2-2.8,6.2-6.8,0-2.7-1.2-4.3-3.2-4.3-1.1,0-3.1.6-3.3,1.9"/></g><g id="g16"><path id="path18" class="cls-2" d="M9.17,101.48h181"/></g><g id="g20"><path id="path22" class="cls-1" d="M9.51,116.29l1-7.8h1l-.4,3h0a1.58,1.58,0,0,1,1.2-.5c1.1,0,1.8.9,1.8,2.3s-.7,3.1-3.3,3.1A6.15,6.15,0,0,0,9.51,116.29Zm1.5-3.9-.5,3.2H11a2.05,2.05,0,0,0,2.1-2.3c0-.9-.4-1.5-1.1-1.5-.3,0-1,.2-1,.6"/></g><g id="g24"><path id="path26" class="cls-1" d="M9.79,127.29v-4.9h2.1v4.5c0,1,.3,1.9,1.3,1.9s1.3-.9,1.3-1.9v-4.5h2.1v4.9c.1,2.1-1.3,3.1-3.4,3.1s-3.4-1-3.4-3.1"/></g><g id="g28"><path id="path30" class="cls-1" d="M24.09,130.29l-2.7-5.4h0l.1,5.4h-2v-7.9h2.7l2.7,5.3h0v-5.3h1.9v7.9h-2.7"/></g><g id="g32"><path id="path34" class="cls-1" d="M29.84,130.29v-7.9h2.1v7.9h-2.1"/></g><g id="g36"><path id="path38" class="cls-1" d="M36.7,130.29l-2.6-7.9h2.2l1.8,6.2h0l1.8-6.2h2.2l-2.8,7.9H36.7"/></g><g id="g40"><path id="path42" class="cls-1" d="M44.13,130.29v-7.9h5.5v1.5h-3.4v1.6h3.3V127h-3.3v1.8h3.6v1.5h-5.7"/></g><g id="g44"><path id="path46" class="cls-1" d="M56.89,130.29l-.5-1.5c-.4-1.3-.7-1.6-1.5-1.6h-.4v3.1h-2.1v-7.9h3.7c1.4,0,2.5.6,2.5,2a1.94,1.94,0,0,1-1.5,2h0c.7.2.7.8,1.1,1.7l.8,2.1-2.1.1Zm-2.4-4.6h.6c.7,0,1.5,0,1.5-.9,0-.7-.7-.9-1.5-.9h-.6v1.8"/></g><g id="g48"><path id="path50" class="cls-1" d="M61.24,130.05l.2-1.7a4.47,4.47,0,0,0,2.2.5c.7,0,1.3-.1,1.3-.8-.1-1.5-3.8-.5-3.8-3.4,0-1.9,1.8-2.4,3.4-2.4a5.62,5.62,0,0,1,2,.3l-.1,1.6a4.67,4.67,0,0,0-1.7-.3c-.5,0-1.4,0-1.4.7,0,1.3,3.7.4,3.7,3.3,0,2-1.7,2.6-3.5,2.6a18.46,18.46,0,0,1-2.3-.4"/></g><g id="g52"><path id="path54" class="cls-1" d="M69.68,130.29v-7.9h2.1v7.9h-2.1"/></g><g id="g56"><path id="path58" class="cls-1" d="M75.63,130.29V124h-1.9v-1.6h6V124h-2v6.3h-2.1"/></g><g id="g60"><path id="path62" class="cls-1" d="M86.92,130.25l-.6-1.7h-3l-.6,1.7h-2.1l3-7.9h2.6l3,7.9Zm-3.1-3.2h2l-.9-3h0Zm1.6-5.1v-1.6H87V122Zm-2.6,0v-1.6h1.6V122h-1.6"/></g><g id="g64"><path id="path66" class="cls-1" d="M92.05,130.29V124h-1.9v-1.6h6V124h-2v6.3h-2.1"/></g><g id="g68"><path id="path70" class="cls-1" d="M9.84,144.36v-7.9h3.6c1.5,0,2.6.6,2.6,2a1.73,1.73,0,0,1-1.4,1.8h0c1.1.2,1.6.8,1.6,1.7,0,1.9-1.7,2.3-3.1,2.3H9.84Zm2.1-1.5h.6c.8,0,1.6-.1,1.6-.9s-.8-.9-1.5-.9h-.7Zm0-3.3h.6c.7,0,1.4-.2,1.4-.8s-.7-.8-1.4-.8h-.6v1.6"/></g><g id="g72"><path id="path74" class="cls-1" d="M18.58,144.36v-7.9h5.5V138h-3.4v1.6h3.2v1.5h-3.2v1.8h3.6v1.5h-5.7"/></g><g id="g76"><path id="path78" class="cls-1" d="M31.49,144.36l-.5-1.5c-.4-1.3-.7-1.6-1.5-1.6h-.4v3.1H27v-7.9h3.7c1.4,0,2.5.6,2.5,2a1.87,1.87,0,0,1-1.5,2h0c.7.2.7.8,1.1,1.7l.8,2.1-2.1.1Zm-2.4-4.6h.5c.7,0,1.5,0,1.5-.9,0-.7-.7-.9-1.5-.9h-.5v1.8"/></g><g id="g80"><path id="path82" class="cls-1" d="M40.57,144.36l-2.7-5.4h0l.1,5.4H36v-7.9h2.7l2.7,5.3h0v-5.3h1.9v7.9h-2.7"/></g></g></g></a></svg>