<svg id="svg-logo_azt_negative" data-name="SVG Logo AZT Negative" xmlns="http://www.w3.org/2000/svg" viewBox="0 0 39.9 13.2"><defs><filter id="f1" x="0" y="0"><feOffset result="offOut" in="SourceAlpha" dx="0" dy="0" /><feGaussianBlur result="blurOut" in="offOut" stdDeviation="2" /><feBlend in="SourceGraphic" in2="blurOut" mode="normal" /></filter><style>svg { cursor: pointer; } .cls-1{fill:#fff;}</style></defs><g filter="url(#f1)"><path class="cls-1" d="M5.5,2.3h1l2.9,8.4h-1L7.6,8.4H4.4l-.7,2.2H2.6ZM7.3,7.4,6,3.6,4.8,7.4Z"/><path class="cls-1" d="M16.4,1.7l-5.2,9.6h-1l5.2-9.6Z"/><path class="cls-1" d="M17.1,2.3h5.3v.5L18.5,9.7h4v1H17v-.5l3.9-6.9H17.1Z"/><path class="cls-1" d="M24,8.3a3,3,0,0,1,1.6-2.6,3,3,0,0,1-.7-1.8,1.82,1.82,0,0,1,1.9-1.8,1.74,1.74,0,0,1,1.9,1.7,1.93,1.93,0,0,1-.3,1A4.07,4.07,0,0,1,27,6l1.8,2.2c.2-.4.4-.9.6-1.4l.6.7L29.4,9l1.3,1.7H29.5l-.7-.9a2.72,2.72,0,0,1-2.2,1A2.39,2.39,0,0,1,24,8.3Zm4.2.8L26.1,6.4a2.12,2.12,0,0,0-1.2,1.9,1.42,1.42,0,0,0,1.5,1.5A2.14,2.14,0,0,0,28.2,9.1ZM25.8,4a2.55,2.55,0,0,0,.6,1.3c.7-.4,1.2-.8,1.2-1.4a.9.9,0,0,0-.9-.9A1,1,0,0,0,25.8,4Z"/><path class="cls-1" d="M31.4,2.3h5.9v1H34.9v7.4H33.8V3.3H31.4Z"/></g></svg>