<?xml version="1.0" encoding="utf-8"?>
<!-- Generator: Adobe Illustrator 25.0.0, SVG Export Plug-In . SVG Version: 6.00 Build 0)  -->
<svg version="1.1" id="CliofonLogo" xmlns="http://www.w3.org/2000/svg" xmlns:xlink="http://www.w3.org/1999/xlink" x="0px" y="0px"
	 viewBox="0 0 62 18.1" style="enable-background:new 0 0 62 18.1;" xml:space="preserve">
<style type="text/css">
	.st0{fill:#001155;}
	.st1{fill:#FF0000;}
	.st2{fill:#0060AE;}
	svg { cursor: pointer; }
</style>
<animate id="startAnimation" attributeName="r" values="100; 100" fill="freeze" begin="click" />
<g>
	<g>
		<path class="st0" d="M0.8,8.1c0-2.5,1.9-4.4,4.5-4.4c2.2,0,3.9,1.5,4.2,3.6H7.1c-0.3-0.9-1-1.4-1.9-1.4c-1.2,0-2.1,1-2.1,2.3
			s0.9,2.2,2.1,2.2c0.9,0,1.7-0.6,1.9-1.5h2.4c-0.3,2.2-2,3.7-4.3,3.7C2.7,12.5,0.8,10.6,0.8,8.1z"/>
		<path class="st0" d="M10.5,3.5h2.2v8.8h-2.2V3.5z"/>
		<path class="st0" d="M14.1,5.8h2.2v6.5h-2.2C14.1,12.3,14.1,5.8,14.1,5.8z M14.1,3.1h2.2V5h-2.2C14.1,5,14.1,3.1,14.1,3.1z"/>
		<path class="st0" d="M17.4,9.1c0-2,1.5-3.5,3.6-3.5s3.6,1.4,3.6,3.5c0,2-1.5,3.5-3.6,3.5C18.9,12.5,17.4,11.1,17.4,9.1z M22.4,9.1
			c0-0.9-0.6-1.4-1.4-1.4s-1.4,0.6-1.4,1.4c0,0.9,0.6,1.4,1.4,1.4S22.4,9.9,22.4,9.1z"/>
		<path class="st0" d="M29.9,7.7h-1.5v4.6h-2.2V7.7h-1.1V5.9h1.1V5.3c0-1.3,0.7-2.1,2.1-2.1h1.6V5h-1c-0.3,0-0.5,0.2-0.5,0.5V6h1.5
			V7.7z"/>
		<path class="st0" d="M30.3,9.1c0-2,1.5-3.5,3.6-3.5s3.6,1.4,3.6,3.5c0,2-1.5,3.5-3.6,3.5C31.8,12.5,30.3,11.1,30.3,9.1z M35.3,9.1
			c0-0.9-0.6-1.4-1.4-1.4s-1.4,0.6-1.4,1.4c0,0.9,0.6,1.4,1.4,1.4S35.3,9.9,35.3,9.1z"/>
		<path class="st0" d="M45,8.4v3.9h-2.2V8.7c0-0.8-0.3-1.1-0.8-1.1c-0.7,0-1.1,0.5-1.1,1.3v3.5h-2.2V5.8h1.6l0.3,0.7
			c0.5-0.5,1.2-0.9,2-0.9C44,5.7,45,6.7,45,8.4z"/>
	</g>
	<circle class="st1" cx="53.3" cy="9" r="1.6"/>
	<g>
		<path class="st2" d="M53.3,13.9v-2.2c1.5,0,2.7-1.2,2.7-2.7s-1.2-2.7-2.7-2.7V4c2.7,0,5,2.2,5,5C58.3,11.7,56.1,13.9,53.3,13.9z"
			/>
		<animateTransform id="innerCircle" attributeName="transform" type="rotate" dur="1.5s" from="0 53.3 9" to="360 53.3 9" repeatCount="1" begin="startAnimation.begin" />
	</g>
	<g>
		<path class="st2" d="M53.3,17.3V15c3.4,0,6.1-2.7,6.1-6.1s-2.7-6.1-6.1-6.1V0.7c4.6,0,8.3,3.7,8.3,8.3S57.9,17.3,53.3,17.3z"/>
	<animateTransform id="outerCircle" attributeName="transform" type="rotate" dur="1.5s" from="0 53.3 9" to="360 53.3 9" repeatCount="1" begin="innerCircle.end" />
	</g>
</g>
</svg>
