<svg id="svg-swisscom_logo_negative" data-name="SVG Swisscom Logo Negative" xmlns="http://www.w3.org/2000/svg" viewBox="0 0 386.8 112.6"><defs><filter id="f1" x="0" y="0"><feOffset result="offOut" in="SourceAlpha" dx="0" dy="0" /><feGaussianBlur result="blurOut" in="offOut" stdDeviation="2" /><feBlend in="SourceGraphic" in2="blurOut" mode="normal" /></filter><style>svg { cursor: pointer; } .cls-1{fill:#fff;}</style></defs><g filter="url(#f1)"><path class="cls-1" d="M251.6,46.5a27.82,27.82,0,0,0-7.6-1.6c-2.9,0-5.2.8-5.2,3.4,0,6.2,16.1,2.4,16.1,15.2,0,8.7-7,12-15,12a34.49,34.49,0,0,1-10.6-1.6l.6-7.6a39.67,39.67,0,0,0,9.6,1.8c3.1,0,5.6-1,5.6-3.7,0-6.7-16-2.4-16-15.2,0-8,6.7-11.3,14.2-11.3a31.83,31.83,0,0,1,10.1,1.6Zm-29.3,0a27.82,27.82,0,0,0-7.6-1.6c-2.9,0-5.2.8-5.2,3.4,0,6.2,16.1,2.4,16.1,15.2,0,8.7-7.1,12-15,12a36.24,36.24,0,0,1-10.8-1.6l.7-7.6a39.57,39.57,0,0,0,9.7,1.8c3,0,5.5-1,5.5-3.7,0-6.7-16.1-2.4-16.1-15.2,0-8,6.8-11.3,14.2-11.3A32,32,0,0,1,224,39.5ZM370.6,38c7,0,11.1,3.8,11.1,12V74.8h-9.3V51.9c0-3.7-1.1-6.2-5-6.2s-7.4,3.5-7.4,9.7V74.8h-9.1V51.9c0-3.5-1.1-6.2-5.1-6.2s-7.4,3.8-7.4,10.1v19H329V38.7c6.2-.8,8.5,1.8,8.8,5.8a12.6,12.6,0,0,1,11.3-6.6c6.5,0,9.1,3.6,10,7,1.4-3.5,5.5-6.9,11.5-6.9Zm-189.8.7c-2,10.7-7.2,27.6-10.4,36.1h-9.8l-6.9-24h-.1l-6.9,24h-9.8c-3.1-8.4-8.8-25.8-10.4-36.1h9.2l6.1,24.8h.1l7.3-24.8h9.3l7.1,24.6h.1l6.2-24.6Zm-60,7.8a27.82,27.82,0,0,0-7.6-1.6c-2.9,0-5.1.8-5.1,3.4,0,6.2,16,2.4,16,15.2,0,8.7-7.1,12-15,12a34.49,34.49,0,0,1-10.6-1.6l.6-7.6a39.57,39.57,0,0,0,9.7,1.8c3.1,0,5.6-1,5.6-3.7,0-6.7-16-2.4-16-15.2,0-8,6.7-11.3,14.2-11.3a31.83,31.83,0,0,1,10.1,1.6ZM305.9,75.6c-10.3,0-17.4-5.6-17.4-18.2C288.5,46.1,296,38,307,38c10.2,0,16.8,5.7,16.8,18,0,11.7-7.2,19.5-17.9,19.6Zm.4-29.7c-4.1,0-8.1,3.1-8.1,11,0,6.9,2.6,10.7,8,10.7,4.6,0,8.1-3.7,8.1-11,0-7-2.5-10.7-8-10.7ZM185,74.8h9.3V38.7c-4.4-.4-9.3.8-9.3,7.6Zm5.1-40.6a5.81,5.81,0,0,0,6-5.6v-.1a5.86,5.86,0,0,0-11.7,0A5.9,5.9,0,0,0,190.1,34.2Zm86.4,41.2c-10.7,0-17.7-5.3-17.7-18.1,0-10.8,6-19.2,19.1-19.2a26.25,26.25,0,0,1,8.8,1.5l-2,7.6a18.37,18.37,0,0,0-6.5-1.3c-6.7,0-9.5,4.4-9.5,11,0,6.4,2.5,10.7,9.1,10.7a18.45,18.45,0,0,0,7.3-1.6l1.1,7.4c-1.8,1.2-5.7,2-9.7,2Z"/><path class="cls-1" d="M38,79h-.4a9.49,9.49,0,0,1-2.1-.9c-4.1-2.8-3.1-9-5.2-12.9a11.84,11.84,0,0,0-3-3.3l-.1-.1c-.5.5-1.2,1.2-2.3,2.4A17.27,17.27,0,0,0,22.3,67h0a35.24,35.24,0,0,1,6.6,9.2c2,4.5,2.5,9.4,4.1,14a18.27,18.27,0,0,0,2.3,4.9A6.43,6.43,0,0,0,38,97.3V79Z"/><path class="cls-1" d="M33.1,22.1c.4.5,1,1.1,1.5,1.6l1.9,1.9c.4.4,1,1,1.5,1.4V5.9a7.57,7.57,0,0,0-1.5-.1,11.67,11.67,0,0,0-3.7.8,10.24,10.24,0,0,0-2.9,1.6A5.11,5.11,0,0,0,28,11.3a7.86,7.86,0,0,0,.8,5,14.92,14.92,0,0,0,1.8,3s.5.6.8.9C31.9,20.8,32.5,21.4,33.1,22.1Z"/><path class="cls-1" d="M66.8,38.5a27.78,27.78,0,0,0-2.4-9.3,26.64,26.64,0,0,0-4.7-6.8l-.6-.6A24.76,24.76,0,0,0,55.5,19a29.3,29.3,0,0,0-3.9-2.1,24.56,24.56,0,0,0-7.1-1.7,12.59,12.59,0,0,0-6.6,1V27h0c1.2,1.1,2.6,2.4,3.4,3.1a17.38,17.38,0,0,0,1.5,1.3l1.5,1.3L45.8,34c.6.5,2.9,2.4,3.2,2.6l.4.4,5.8,4.7.1.1c.8.6,4.8,3.9,6.8,5.6a47.06,47.06,0,0,1,3.6,3.2,48.89,48.89,0,0,0,.9-5.3A26.07,26.07,0,0,0,66.8,38.5Z"/><path class="cls-1" d="M79.4,69.5a25.82,25.82,0,0,0-3.3-7.4,51,51,0,0,0-7.3-8.8c-1-1-2-1.9-3-2.8-.1.4-.3,1.5-.8,3.2-.3.8-.7,2.2-.9,2.8-.3.8-.8,2.2-1.1,3-.5,1.2-1.2,3-1.9,4.5-1,2.1-1.5,3.1-2.6,5.1-.5.9-.9,1.7-1.5,2.8-.2.4-.4.7-.7,1.2-.1.2-1.4,2.2-1.5,2.4a10.54,10.54,0,0,1-.7,1.1c-1.5,2.3-1.6,2.4-1.9,2.8-.6.8.2-.3-.9,1.2l-2.5,3.5c-.4.5-1.6,2.2-3,3.9s-2.8,3.6-3.4,4.3L38,97.5v10.4a40.34,40.34,0,0,0,5.8-.8,63.33,63.33,0,0,0,7.5-1.9c2.2-.7,4.3-1.5,6.4-2.4a40.66,40.66,0,0,0,5.5-2.8,40.92,40.92,0,0,0,6.4-4.5A33.06,33.06,0,0,0,75.5,89a28.39,28.39,0,0,0,3.8-8.3,31.17,31.17,0,0,0,.8-5.2A23.49,23.49,0,0,0,79.4,69.5Z"/><path class="cls-1" d="M35.3,95.1A16.94,16.94,0,0,1,33,90.2c-1.6-4.7-2.1-9.6-4.1-14A35.24,35.24,0,0,0,22.3,67a29,29,0,0,0-1.9,2.9,17.54,17.54,0,0,0-1.3,2.8,10.46,10.46,0,0,0-.4,1.7,11,11,0,0,0-.2,1.8,17,17,0,0,0,.1,2.3,18.29,18.29,0,0,0,.6,2.5c.4,1,.9,2,1.4,3l.2.4a23.29,23.29,0,0,0,4.3,5.1A21.72,21.72,0,0,0,28,91.9c.7.5,1.4,1,2.1,1.4,1,.6,1.9,1.2,2.9,1.7a52.73,52.73,0,0,0,4.9,2.2h0A5.21,5.21,0,0,1,35.3,95.1Z"/><path class="cls-1" d="M65.9,50.4c-.1-.1-1.8-1.6-3.6-3.2s-6-4.9-6.8-5.6l-.1-.1-5.8-4.7c-.2-.2-.4-.3-.4-.4-.3-.2-2.6-2.1-3.2-2.6l-1.6-1.3-1.5-1.2c-.5-.4-1-.9-1.5-1.3-.7-.6-2.2-2-3.4-3.1h0c-.5-.4-1-1-1.5-1.4l-1.9-1.9A20.59,20.59,0,0,1,33.1,22c-.6-.7-1.2-1.3-1.7-2l-.6-.7h0c.3.6,1.1,1.6,1.4,2.1L34,24.1c.7,1,1.8,2.9,2.5,3.9a.76.76,0,0,1,.2.4,21.4,21.4,0,0,1,1,2.2,4.25,4.25,0,0,1,.2,1.1h0V78.8h0V97.1l4.4-5.2c.6-.8,2.1-2.6,3.4-4.3s2.6-3.3,3-3.9l2.5-3.6c1.1-1.5.3-.4.9-1.2A25.9,25.9,0,0,0,54,76.1l.7-1.1c.1-.2,1.4-2.3,1.5-2.4a7.46,7.46,0,0,0,.7-1.2c.6-1.1,1-1.9,1.5-2.8,1.1-2,1.6-3,2.6-5.1.7-1.5,1.4-3.2,1.9-4.5.3-.9.9-2.3,1.1-3a23.36,23.36,0,0,0,.9-2.8,13.85,13.85,0,0,0,1-2.8Z"/><path class="cls-1" d="M22.3,67a34.67,34.67,0,0,1,2.5-2.9,21.58,21.58,0,0,0,2.3-2.4c-4-3.2-9.5-5.5-8.3-11.4C20,45.1,27.2,46,30,42.1c1.3-1.8,1.8-4.1,2.8-6.2a6.52,6.52,0,0,1,5.2-4h0a3.59,3.59,0,0,0-.2-1.1,14.72,14.72,0,0,0-1-2.2c-.1-.1-.1-.3-.2-.4-.6-1-1.8-2.9-2.5-3.9l-1.8-2.7c-.4-.5-1.1-1.6-1.5-2.2h0l-.2-.2a14.92,14.92,0,0,1-1.8-3l-.3-.6L25.3,18c-2.6,1.9-5.1,3.7-7.6,5.7-1.6,1.3-3.2,2.6-4.8,4a59.74,59.74,0,0,0-4.3,4.4c-2.5,3-4.4,6.4-4.7,10.2v1.9a6.93,6.93,0,0,0,.3,2,16.89,16.89,0,0,0,2.9,6.4,37.08,37.08,0,0,0,5.5,5.7l1,.9c2.3,2,4.7,4,7,6.2l1.9,1.9-.2-.3Z"/></g></svg>