<svg id="svg-logo_swiss_post_negative" data-name="SVG Logo Swiss Post Negative" xmlns="http://www.w3.org/2000/svg" viewBox="0 0 42.5 28.1"><defs><filter id="f1" x="0" y="0"><feOffset result="offOut" in="SourceAlpha" dx="0" dy="0" /><feGaussianBlur result="blurOut" in="offOut" stdDeviation="2" /><feBlend in="SourceGraphic" in2="blurOut" mode="normal" /></filter><style>svg { cursor: pointer; } .cls-1{fill:#fff;}</style></defs><g filter="url(#f1)"><g id="Logo"><polygon class="cls-1" points="19.4 11.2 19.4 0.9 8.3 0.9 8.3 8.7 0.7 8.7 0.7 19.4 8.3 19.4 8.3 27.3 19.4 27.3 19.4 17 16.8 17 16.8 24.8 10.9 24.8 10.9 17 3.4 17 3.4 11.2 10.9 11.2 10.9 3.3 16.8 3.3 16.8 11.2 19.4 11.2"/><path class="cls-1" d="M34.6,10.3a3.32,3.32,0,0,1-3.5,3.3h-3V7.2h3A3.22,3.22,0,0,1,34.6,10.3ZM32.4.9H21V27.3h7.2V19.4h4.3a9.08,9.08,0,0,0,9.3-9.2A9.37,9.37,0,0,0,32.4.9Z"/></g></g></svg>